<svg width="36" height="36" viewBox="0 0 36 36" fill="none" xmlns="http://www.w3.org/2000/svg">
<path d="M3.176 0H32.824C33.6663 0 34.4742 0.334613 35.0698 0.930229C35.6654 1.52584 36 2.33367 36 3.176V32.824C36 33.6663 35.6654 34.4742 35.0698 35.0698C34.4742 35.6654 33.6663 36 32.824 36H3.176C2.33367 36 1.52584 35.6654 0.930229 35.0698C0.334613 34.4742 0 33.6663 0 32.824L0 3.176C0 2.33367 0.334613 1.52584 0.930229 0.930229C1.52584 0.334613 2.33367 0 3.176 0Z" fill="#FF5D55"/>
<path d="M27.183 11.408C25.9532 10.6757 24.4829 10.4617 23.0953 10.8129C21.7078 11.1641 20.5164 12.0518 19.783 13.281C19.783 13.29 19.774 13.29 19.774 13.299C19.6548 13.5093 19.6232 13.7581 19.6863 13.9915C19.7494 14.2248 19.902 14.4239 20.111 14.5454C20.32 14.6669 20.5684 14.7012 20.8025 14.6406C21.0365 14.58 21.2372 14.4296 21.361 14.222C21.5277 13.9373 21.736 13.6791 21.979 13.456C22.4919 12.9724 23.1366 12.6517 23.8317 12.5346C24.5268 12.4174 25.241 12.509 25.884 12.7977C26.5271 13.0865 27.0701 13.5594 27.4443 14.1568C27.8185 14.7541 28.0072 15.4491 27.9865 16.1536C27.9658 16.8582 27.7367 17.5409 27.328 18.1152C26.9193 18.6896 26.3496 19.1298 25.6907 19.3803C25.0318 19.6308 24.3134 19.6803 23.6264 19.5226C22.9394 19.3648 22.3146 19.0069 21.831 18.494L15.907 12.477C14.7242 11.3267 13.1458 10.673 11.496 10.65C10.0657 10.65 8.6939 11.2174 7.68152 12.2277C6.66914 13.238 6.09892 14.6087 6.09601 16.039C6.15723 17.0515 6.48536 18.0299 7.04709 18.8745C7.60881 19.7192 8.38409 20.4002 9.29419 20.8482C10.2043 21.2962 11.2168 21.4954 12.2288 21.4255C13.2407 21.3555 14.2162 21.019 15.056 20.45V22.203C15.056 24.796 13.976 25.996 11.651 25.996C10.8813 25.9258 10.1429 25.6578 9.50739 25.218C8.87187 24.7782 8.36087 24.1816 8.02402 23.486C7.96584 23.3805 7.88744 23.2876 7.79333 23.2124C7.69923 23.1373 7.59126 23.0814 7.47556 23.0479C7.24189 22.9804 6.99098 23.0085 6.77802 23.126C6.56505 23.2435 6.40745 23.4408 6.33994 23.6744C6.27242 23.9081 6.30051 24.159 6.418 24.372C6.91191 25.3555 7.65484 26.1924 8.57278 26.7994C9.49073 27.4065 10.5517 27.7625 11.65 27.832C14.981 27.832 16.892 25.783 16.892 22.203V18.154C16.9147 17.9512 16.8685 17.7467 16.7607 17.5734C16.653 17.4002 16.49 17.2682 16.2981 17.1989C16.1062 17.1296 15.8966 17.1269 15.703 17.1914C15.5094 17.2558 15.3431 17.3835 15.231 17.554C15.222 17.563 15.222 17.572 15.212 17.582C15.202 17.592 15.184 17.619 15.175 17.637C14.8566 18.2743 14.3558 18.8025 13.7362 19.1542C13.1167 19.5059 12.4064 19.6653 11.696 19.612C10.7281 19.6256 9.79315 19.261 9.09 18.5957C8.38684 17.9305 7.97102 17.0171 7.931 16.05C7.93153 15.1055 8.30699 14.1997 8.97488 13.5319C9.64277 12.864 10.5485 12.4885 11.493 12.488C12.6481 12.5151 13.7522 12.9686 14.593 13.761L20.517 19.768C21.0916 20.3687 21.7972 20.8286 22.5787 21.112C23.3602 21.3953 24.1966 21.4944 25.0227 21.4015C25.8488 21.3086 26.6423 21.0262 27.3413 20.5764C28.0404 20.1265 28.6262 19.5213 29.053 18.808C29.7855 17.5785 30 16.1085 29.6494 14.721C29.2988 13.3335 28.4117 12.1419 27.183 11.408Z" fill="white"/>
</svg>
