<svg id="svg" version="1.1"
    xmlns="http://www.w3.org/2000/svg"
    xmlns:xlink="http://www.w3.org/1999/xlink" width="400" height="432" viewBox="0, 0, 400,432">
    <g id="svgg">
        <path id="path0" d="M106.564 33.370 C 105.116 34.384,103.598 37.006,102.211 40.884 C 101.466 42.971,100.053 46.556,99.072 48.853 C 98.091 51.149,96.627 55.261,95.819 57.991 C 91.854 71.377,83.431 82.638,71.400 90.635 C 66.674 93.776,65.556 94.326,57.200 97.619 C 48.186 101.171,46.839 101.651,42.000 103.039 C 32.753 105.690,29.709 108.483,31.187 112.962 C 32.134 115.831,34.969 117.335,43.392 119.434 C 52.703 121.755,53.556 122.082,65.800 128.034 C 79.216 134.557,92.065 150.152,96.750 165.600 C 102.687 185.175,104.829 189.600,108.367 189.600 C 112.311 189.600,114.559 185.420,118.992 169.841 C 124.512 150.439,136.461 135.125,152.000 127.535 C 163.800 121.772,164.845 121.387,173.600 119.586 C 183.085 117.634,187.600 114.493,187.600 109.847 C 187.600 106.872,185.264 105.407,177.943 103.787 C 175.594 103.268,171.991 102.184,169.936 101.378 C 167.881 100.573,163.320 98.896,159.800 97.652 C 152.642 95.121,152.341 94.963,144.215 89.467 C 136.228 84.066,131.515 79.046,127.251 71.401 C 123.084 63.928,121.936 61.172,119.405 52.561 C 114.927 37.326,110.456 30.644,106.564 33.370 M231.000 159.427 C 227.362 161.312,225.351 164.879,223.594 172.561 C 222.906 175.573,221.352 180.954,220.142 184.519 C 218.932 188.083,217.422 193.160,216.786 195.800 C 216.150 198.440,215.254 201.770,214.795 203.200 C 213.465 207.340,206.439 220.954,204.308 223.521 C 203.267 224.774,201.170 227.420,199.648 229.400 C 192.855 238.239,178.694 250.600,170.747 254.627 C 164.903 257.588,152.570 262.269,145.400 264.246 C 142.540 265.035,137.950 266.443,135.200 267.374 C 132.450 268.306,127.430 269.765,124.044 270.616 C 114.670 272.975,112.000 274.966,112.000 279.599 C 112.000 284.556,114.753 286.627,124.200 288.776 C 129.068 289.883,132.427 290.932,138.861 293.356 C 140.324 293.907,143.474 294.828,145.861 295.402 C 152.189 296.925,155.933 298.199,162.000 300.894 C 170.202 304.538,172.476 305.770,176.103 308.537 C 177.934 309.935,180.235 311.597,181.216 312.231 C 189.816 317.792,196.993 325.398,204.966 337.400 C 207.733 341.564,213.537 353.783,215.131 358.800 C 217.700 366.883,219.788 373.164,221.114 376.800 C 221.796 378.670,223.010 383.170,223.812 386.800 C 224.816 391.349,225.662 394.146,226.535 395.800 C 229.772 401.939,236.549 402.583,239.730 397.053 C 241.901 393.279,246.316 380.464,248.015 373.000 C 250.125 363.736,250.381 362.958,254.407 353.598 C 263.127 333.327,271.986 321.833,286.511 311.947 C 293.836 306.962,294.943 306.297,299.400 304.194 C 301.820 303.053,305.690 301.209,308.000 300.096 C 313.073 297.652,314.065 297.314,322.214 295.252 C 325.726 294.364,330.940 292.827,333.800 291.838 C 336.660 290.848,341.070 289.484,343.600 288.805 C 358.534 284.799,360.013 275.703,346.400 271.593 C 344.750 271.095,339.890 269.543,335.600 268.145 C 331.310 266.746,325.735 265.140,323.212 264.576 C 318.341 263.486,314.526 262.121,307.400 258.918 C 304.980 257.830,301.785 256.438,300.300 255.825 C 282.710 248.562,262.989 227.674,255.430 208.299 C 254.465 205.825,253.094 202.540,252.383 201.000 C 250.474 196.862,248.913 192.047,247.587 186.200 C 244.497 172.584,239.836 160.970,236.837 159.419 C 235.303 158.626,232.538 158.630,231.000 159.427 " stroke="none" fill="#FF5D55" fill-rule="evenodd"></path>
        <path id="path1" d="M0.000 216.000 L 0.000 432.000 200.000 432.000 L 400.000 432.000 400.000 216.000 L 400.000 0.000 200.000 0.000 L 0.000 0.000 0.000 216.000 M111.591 34.700 C 113.913 37.051,116.758 43.554,119.405 52.561 C 121.936 61.172,123.084 63.928,127.251 71.401 C 131.515 79.046,136.228 84.066,144.215 89.467 C 152.341 94.963,152.642 95.121,159.800 97.652 C 163.320 98.896,167.881 100.573,169.936 101.378 C 171.991 102.184,175.594 103.268,177.943 103.787 C 185.264 105.407,187.600 106.872,187.600 109.847 C 187.600 114.493,183.085 117.634,173.600 119.586 C 164.845 121.387,163.800 121.772,152.000 127.535 C 136.461 135.125,124.512 150.439,118.992 169.841 C 114.559 185.420,112.311 189.600,108.367 189.600 C 104.829 189.600,102.687 185.175,96.750 165.600 C 92.943 153.045,85.797 142.881,74.200 133.528 C 66.789 127.551,55.815 122.530,43.392 119.434 C 34.969 117.335,32.134 115.831,31.187 112.962 C 29.709 108.483,32.753 105.690,42.000 103.039 C 46.839 101.651,48.186 101.171,57.200 97.619 C 65.556 94.326,66.674 93.776,71.400 90.635 C 83.431 82.638,91.854 71.377,95.819 57.991 C 96.627 55.261,98.091 51.149,99.072 48.853 C 100.053 46.556,101.466 42.971,102.211 40.884 C 105.113 32.764,107.878 30.941,111.591 34.700 M236.837 159.419 C 239.836 160.970,244.497 172.584,247.587 186.200 C 248.913 192.047,250.474 196.862,252.383 201.000 C 253.094 202.540,254.465 205.825,255.430 208.299 C 262.989 227.674,282.710 248.562,300.300 255.825 C 301.785 256.438,304.980 257.830,307.400 258.918 C 314.526 262.121,318.341 263.486,323.212 264.576 C 325.735 265.140,331.310 266.746,335.600 268.145 C 339.890 269.543,344.750 271.095,346.400 271.593 C 360.013 275.703,358.534 284.799,343.600 288.805 C 341.070 289.484,336.660 290.848,333.800 291.838 C 330.940 292.827,325.726 294.364,322.214 295.252 C 314.065 297.314,313.073 297.652,308.000 300.096 C 305.690 301.209,301.820 303.053,299.400 304.194 C 294.943 306.297,293.836 306.962,286.511 311.947 C 271.986 321.833,263.127 333.327,254.407 353.598 C 250.381 362.958,250.125 363.736,248.015 373.000 C 246.316 380.464,241.901 393.279,239.730 397.053 C 236.549 402.583,229.772 401.939,226.535 395.800 C 225.662 394.146,224.816 391.349,223.812 386.800 C 223.010 383.170,221.796 378.670,221.114 376.800 C 219.788 373.164,217.700 366.883,215.131 358.800 C 213.537 353.783,207.733 341.564,204.966 337.400 C 196.993 325.398,189.816 317.792,181.216 312.231 C 180.235 311.597,177.934 309.935,176.103 308.537 C 169.579 303.560,156.930 298.066,145.861 295.402 C 143.474 294.828,140.324 293.907,138.861 293.356 C 132.427 290.932,129.068 289.883,124.200 288.776 C 114.753 286.627,112.000 284.556,112.000 279.599 C 112.000 274.966,114.670 272.975,124.044 270.616 C 127.430 269.765,132.450 268.306,135.200 267.374 C 137.950 266.443,142.540 265.035,145.400 264.246 C 152.570 262.269,164.903 257.588,170.747 254.627 C 178.694 250.600,192.855 238.239,199.648 229.400 C 201.170 227.420,203.267 224.774,204.308 223.521 C 206.439 220.954,213.465 207.340,214.795 203.200 C 215.254 201.770,216.150 198.440,216.786 195.800 C 217.422 193.160,218.932 188.083,220.142 184.519 C 221.352 180.954,222.906 175.573,223.594 172.561 C 226.118 161.527,231.186 156.497,236.837 159.419 " stroke="none" fill="#fcfcfc" fill-rule="evenodd"></path>
    </g>
</svg>